<svg width="346" height="338" viewBox="0 0 346 338" fill="none" xmlns="http://www.w3.org/2000/svg">
<g clip-path="url(#clip0_229_30)">
<path d="M182.061 1.62018L175.696 5.09293L97.2811 47.878L90.9163 51.3508C87.8279 53.0404 85.5359 55.886 84.543 59.2635C83.5501 62.6409 83.9375 66.2743 85.6201 69.3665L144.014 176.389C145.704 179.478 148.549 181.77 151.927 182.763C155.304 183.756 158.938 183.368 162.03 181.686L162.046 181.677L253.158 131.964L253.175 131.955C256.263 130.265 258.555 127.42 259.548 124.042C260.541 120.665 260.153 117.032 258.471 113.939L200.077 6.91641C198.387 3.82802 195.542 1.53595 192.164 0.54306C188.787 -0.449835 185.153 -0.0624685 182.061 1.62018Z" fill="#F2F2F2"/>
<path d="M183.892 4.97553L176.353 9.08876L100.286 50.593L92.7471 54.7062C90.5478 55.9094 88.9156 57.9358 88.2085 60.341C87.5014 62.7461 87.7773 65.3335 88.9755 67.5356L147.37 174.558C148.573 176.758 150.599 178.39 153.004 179.097C155.41 179.804 157.997 179.528 160.199 178.33L160.215 178.321L251.327 128.608L251.344 128.599C253.543 127.396 255.175 125.37 255.882 122.965C256.589 120.559 256.314 117.972 255.115 115.77L196.721 8.74715C195.518 6.54784 193.492 4.91561 191.087 4.20853C188.681 3.50146 186.094 3.7773 183.892 4.97553Z" fill="white"/>
<path d="M185.149 38.1955L151.168 56.7364C150.653 57.0173 150.048 57.0821 149.485 56.9167C148.922 56.7513 148.448 56.3692 148.168 55.8544C147.887 55.3396 147.822 54.7343 147.987 54.1717C148.153 53.6091 148.535 53.1352 149.05 52.8543L183.031 34.3134C183.546 34.0325 184.151 33.9676 184.713 34.133C185.276 34.2984 185.75 34.6806 186.031 35.1954C186.312 35.7102 186.377 36.3154 186.211 36.8781C186.046 37.4407 185.664 37.9146 185.149 38.1955H185.149Z" fill="#F2F2F2"/>
<path d="M196.73 40.3778L154.742 63.2874C154.227 63.5683 153.622 63.6331 153.059 63.4677C152.497 63.3023 152.023 62.9202 151.742 62.4054C151.461 61.8906 151.396 61.2853 151.562 60.7227C151.727 60.1601 152.109 59.6862 152.624 59.4053L194.612 36.4957C194.867 36.3567 195.147 36.2692 195.435 36.2382C195.724 36.2073 196.016 36.2335 196.295 36.3154C196.573 36.3973 196.833 36.5332 197.059 36.7155C197.285 36.8978 197.473 37.1228 197.612 37.3777C197.751 37.6326 197.839 37.9124 197.869 38.2011C197.9 38.4898 197.874 38.7818 197.792 39.0604C197.71 39.339 197.574 39.5987 197.392 39.8248C197.21 40.0508 196.985 40.2387 196.73 40.3778H196.73Z" fill="#F2F2F2"/>
<path d="M137.198 49.0185L105.869 66.1121C105.622 66.2468 105.439 66.4738 105.36 66.7434C105.281 67.013 105.312 67.303 105.446 67.5496L118.787 91.9999C118.922 92.2465 119.149 92.4296 119.418 92.5088C119.688 92.5881 119.978 92.557 120.224 92.4225L151.553 75.3288C151.8 75.1942 151.983 74.9671 152.062 74.6976C152.141 74.428 152.11 74.138 151.976 73.8914L138.635 49.4411C138.501 49.1945 138.273 49.0114 138.004 48.9322C137.734 48.8529 137.444 48.884 137.198 49.0185Z" fill="#F2F2F2"/>
<path d="M202.01 69.2189L155.918 94.3673C155.663 94.5064 155.384 94.5939 155.095 94.6248C154.806 94.6558 154.514 94.6296 154.236 94.5477C153.957 94.4658 153.697 94.3298 153.471 94.1475C153.245 93.9653 153.057 93.7402 152.918 93.4853C152.779 93.2304 152.692 92.9506 152.661 92.6619C152.63 92.3732 152.656 92.0812 152.738 91.8026C152.82 91.524 152.956 91.2643 153.138 91.0383C153.32 90.8122 153.545 90.6243 153.8 90.4852L199.891 65.3368C200.406 65.0559 201.011 64.9911 201.574 65.1565C202.137 65.3219 202.611 65.704 202.892 66.2188C203.172 66.7336 203.237 67.3389 203.072 67.9015C202.906 68.4641 202.524 68.938 202.01 69.2189H202.01Z" fill="#F2F2F2"/>
<path d="M213.591 71.4012L159.493 100.918C158.978 101.199 158.373 101.264 157.81 101.099C157.247 100.933 156.773 100.551 156.492 100.036C156.212 99.5215 156.147 98.9162 156.312 98.3536C156.478 97.791 156.86 97.3171 157.374 97.0362L211.473 67.5191C211.987 67.2382 212.593 67.1734 213.155 67.3388C213.718 67.5042 214.192 67.8863 214.473 68.4011C214.754 68.9159 214.818 69.5212 214.653 70.0838C214.488 70.6464 214.105 71.1203 213.591 71.4012H213.591Z" fill="#F2F2F2"/>
<path d="M138.365 114.963C143.545 114.963 147.745 110.763 147.745 105.582C147.745 100.401 143.545 96.2013 138.365 96.2013C133.184 96.2013 128.984 100.401 128.984 105.582C128.984 110.763 133.184 114.963 138.365 114.963Z" fill="#F2F2F2"/>
<path d="M278.722 45.7186H174.893C171.372 45.7225 167.997 47.1227 165.508 49.612C163.019 52.1013 161.619 55.4763 161.615 58.9967V180.914C161.619 184.434 163.019 187.809 165.508 190.298C167.997 192.788 171.372 194.188 174.893 194.192H278.722C282.242 194.188 285.617 192.788 288.107 190.298C290.596 187.809 291.996 184.434 292 180.914V58.9967C291.996 55.4763 290.596 52.1013 288.107 49.612C285.617 47.1227 282.242 45.7225 278.722 45.7186Z" fill="#E6E6E6"/>
<path d="M278.722 49.541H174.893C172.386 49.5439 169.982 50.541 168.21 52.3136C166.437 54.0863 165.44 56.4897 165.437 58.9967V180.914C165.44 183.421 166.437 185.824 168.21 187.597C169.982 189.369 172.386 190.367 174.893 190.369H278.722C281.229 190.366 283.632 189.369 285.405 187.597C287.178 185.824 288.175 183.421 288.178 180.914V58.9967C288.175 56.4898 287.178 54.0863 285.405 52.3137C283.632 50.541 281.229 49.5439 278.722 49.541Z" fill="white"/>
<path d="M263.914 79.3046H225.204C224.617 79.3046 224.055 79.0717 223.64 78.657C223.226 78.2423 222.993 77.6799 222.993 77.0935C222.993 76.507 223.226 75.9446 223.64 75.53C224.055 75.1153 224.617 74.8823 225.204 74.8823H263.914C264.205 74.882 264.493 74.939 264.761 75.0499C265.03 75.1609 265.274 75.3237 265.479 75.5291C265.685 75.7344 265.848 75.9783 265.959 76.2467C266.071 76.5152 266.128 76.8029 266.128 77.0935C266.128 77.3841 266.071 77.6718 265.959 77.9402C265.848 78.2087 265.685 78.4525 265.479 78.6579C265.274 78.8632 265.03 79.0261 264.761 79.137C264.493 79.248 264.205 79.305 263.914 79.3046Z" fill="#2C76DC"/>
<path d="M273.035 86.7673H225.204C224.617 86.7673 224.055 86.5343 223.64 86.1196C223.226 85.705 222.993 85.1426 222.993 84.5561C222.993 83.9697 223.226 83.4073 223.64 82.9926C224.055 82.5779 224.617 82.345 225.204 82.345H273.035C273.622 82.345 274.184 82.5779 274.599 82.9926C275.013 83.4073 275.246 83.9697 275.246 84.5561C275.246 85.1426 275.013 85.705 274.599 86.1196C274.184 86.5343 273.622 86.7673 273.035 86.7673Z" fill="#2C76DC"/>
<path d="M216.637 65.8385H180.948C180.667 65.8385 180.398 65.9502 180.199 66.1489C180.001 66.3475 179.889 66.617 179.889 66.898V94.7509C179.889 95.0318 180.001 95.3013 180.199 95.5C180.398 95.6986 180.667 95.8103 180.948 95.8103H216.637C216.918 95.8103 217.188 95.6986 217.386 95.5C217.585 95.3013 217.697 95.0318 217.697 94.7509V66.898C217.697 66.617 217.585 66.3475 217.386 66.1489C217.188 65.9502 216.918 65.8385 216.637 65.8385Z" fill="#E6E6E6"/>
<path d="M190.738 82.9421C190.753 85.2935 189.886 87.565 188.309 89.309C186.748 91.0216 184.425 92.1574 182.081 91.6874C179.922 91.2547 178.168 89.368 178.387 87.0854C178.423 86.591 178.567 86.1105 178.808 85.6773C179.049 85.2442 179.381 84.8688 179.782 84.5774C180.184 84.2859 180.643 84.0855 181.13 83.9899C181.616 83.8944 182.118 83.9061 182.599 84.0242C184.65 84.5564 185.467 87.5119 183.758 88.8992C183.348 89.2321 182.759 88.6499 183.173 88.3139C184.302 87.3968 183.953 85.3906 182.59 84.8874C181.002 84.3016 179.32 85.5615 179.206 87.1845C179.071 89.1088 180.545 90.5579 182.353 90.899C184.308 91.2681 186.247 90.2672 187.572 88.8857C189.091 87.2814 189.929 85.1511 189.91 82.9421C189.914 82.8349 189.959 82.7332 190.037 82.6586C190.114 82.584 190.217 82.5424 190.324 82.5424C190.432 82.5424 190.535 82.584 190.612 82.6586C190.689 82.7332 190.734 82.8349 190.738 82.9421Z" fill="#2F2E41"/>
<path d="M198.821 88.204C206.976 88.204 213.587 81.5929 213.587 73.4377C213.587 65.2824 206.976 58.6713 198.821 58.6713C190.665 58.6713 184.054 65.2824 184.054 73.4377C184.054 81.5929 190.665 88.204 198.821 88.204Z" fill="#2C76DC"/>
<path d="M198.065 79.7383L198.05 79.1865C199.076 79.1579 199.981 79.0935 200.661 78.5967C200.854 78.4478 201.013 78.2592 201.126 78.0436C201.239 77.828 201.305 77.5905 201.318 77.3473C201.33 77.1987 201.308 77.0493 201.253 76.9108C201.198 76.7723 201.111 76.6483 201 76.5486C200.549 76.1674 199.822 76.2908 199.293 76.5336L198.836 76.7429L199.712 70.3445L200.259 70.4194L199.514 75.8621C200.233 75.6506 200.9 75.7417 201.357 76.1272C201.532 76.2803 201.669 76.4718 201.758 76.6868C201.847 76.9018 201.886 77.1345 201.87 77.3667C201.854 77.6935 201.766 78.0128 201.614 78.3022C201.461 78.5917 201.247 78.8443 200.987 79.0423C200.113 79.6809 198.978 79.7127 198.065 79.7383Z" fill="#2F2E41"/>
<path d="M205.934 70.8888H202.962V71.4406H205.934V70.8888Z" fill="#2F2E41"/>
<path d="M196.553 70.8888H193.582V71.4406H196.553V70.8888Z" fill="#2F2E41"/>
<path d="M190.641 95.8104C191.748 95.1081 192.944 94.5578 194.198 94.1742C194.078 93.749 194.08 93.2989 194.203 92.8747C194.369 92.3389 194.705 91.8712 195.159 91.5415C195.613 91.2119 196.161 91.0378 196.722 91.0454H200.32C200.882 91.0383 201.431 91.2127 201.886 91.5428C202.341 91.8729 202.677 92.341 202.845 92.8775C202.968 93.3007 202.97 93.75 202.85 94.1742C204.103 94.5583 205.299 95.1085 206.406 95.8104H190.641Z" fill="#2F2E41"/>
<path d="M215.735 67.9574C215.466 67.6316 215.135 67.3625 214.761 67.1656C214.433 66.9944 214.069 66.9045 213.699 66.9035C213.191 66.9097 212.697 67.0758 212.289 67.378C211.166 68.1726 210.388 69.886 210.388 71.8698C210.388 74.3585 211.613 76.4223 213.205 76.781C213.367 76.8173 213.533 76.8359 213.699 76.8362C215.522 76.8362 217.01 74.6096 217.01 71.8698C217.01 70.2806 216.51 68.8652 215.735 67.9574Z" fill="#3F3D56"/>
<path d="M185.407 67.2594H185.404C185.036 67.0304 184.611 66.9073 184.177 66.9035C183.807 66.9045 183.442 66.9944 183.114 67.1656C182.741 67.3625 182.409 67.6317 182.14 67.9575L182.138 67.9602C181.365 68.868 180.866 70.2834 180.866 71.8698C180.866 74.0109 181.771 75.8374 183.04 76.5354C183.387 76.7301 183.778 76.8336 184.177 76.8362C184.265 76.8362 184.354 76.8306 184.441 76.8196H184.444C186.144 76.6155 187.488 74.4744 187.488 71.8698C187.488 69.784 186.624 67.9933 185.407 67.2594Z" fill="#3F3D56"/>
<path d="M183.247 76.0607C183.312 76.0606 183.377 76.0449 183.436 76.0149C183.494 75.9849 183.545 75.9414 183.583 75.888C183.621 75.8347 183.646 75.7729 183.656 75.708C183.666 75.643 183.66 75.5766 183.639 75.5144C182.848 73.1622 182.61 70.6593 182.944 68.2003C183.277 65.7412 184.173 63.3921 185.562 61.3357C186.951 59.2793 188.796 57.5708 190.953 56.3431C193.109 55.1155 195.52 54.4016 197.997 54.2571C200.475 54.1125 202.952 54.5412 205.237 55.5097C207.522 56.4783 209.552 57.9606 211.171 59.8416C212.79 61.7225 213.953 63.9514 214.57 66.355C215.188 68.7586 215.242 71.2722 214.73 73.7004C214.708 73.8078 214.729 73.9198 214.788 74.0117C214.848 74.1037 214.942 74.1681 215.05 74.1907C215.157 74.2134 215.269 74.1925 215.361 74.1325C215.453 74.0726 215.518 73.9786 215.54 73.8712C216.079 71.3182 216.022 68.6754 215.373 66.1482C214.724 63.621 213.501 61.2774 211.799 59.2997C210.097 57.322 207.962 55.7633 205.56 54.7449C203.158 53.7266 200.553 53.2759 197.949 53.4279C195.344 53.5799 192.809 54.3306 190.542 55.6215C188.274 56.9125 186.335 58.7089 184.875 60.8712C183.415 63.0335 182.473 65.5034 182.122 68.089C181.772 70.6745 182.023 73.306 182.855 75.779C182.882 75.861 182.935 75.9324 183.005 75.9829C183.076 76.0334 183.16 76.0606 183.247 76.0607Z" fill="#3F3D56"/>
<path d="M206.238 63.8704C206.823 64.6685 206.535 65.7441 205.919 66.4322C205.117 67.3277 203.839 67.3842 202.729 67.218C201.483 67.0315 200.162 66.4479 198.901 66.8412C197.826 67.1764 197.06 68.1512 195.943 68.396C194.953 68.6132 193.769 68.3257 193.422 67.2703C193.255 66.7631 194.054 66.5457 194.22 67.0502C194.444 67.733 195.414 67.7194 195.969 67.5304C196.86 67.2272 197.546 66.4899 198.421 66.1377C199.453 65.7225 200.572 65.91 201.622 66.1465C202.612 66.3694 203.752 66.7 204.738 66.2835C205.468 65.9754 206.049 65.0047 205.524 64.2881C205.209 63.858 205.926 63.4446 206.238 63.8704Z" fill="#2F2E41"/>
<path d="M263.856 114.614H211.35C211.06 114.614 210.772 114.557 210.504 114.445C210.236 114.334 209.992 114.171 209.787 113.966C209.581 113.761 209.418 113.517 209.307 113.249C209.196 112.98 209.139 112.693 209.139 112.403C209.139 112.112 209.196 111.825 209.307 111.556C209.418 111.288 209.581 111.044 209.787 110.839C209.992 110.634 210.236 110.471 210.504 110.36C210.772 110.249 211.06 110.191 211.35 110.191H263.856C264.442 110.192 265.004 110.425 265.418 110.84C265.832 111.255 266.065 111.817 266.065 112.403C266.065 112.989 265.832 113.551 265.418 113.965C265.004 114.38 264.442 114.613 263.856 114.614Z" fill="#E6E6E6"/>
<path d="M272.977 122.076H211.35C211.06 122.077 210.772 122.02 210.503 121.909C210.235 121.798 209.991 121.635 209.785 121.43C209.579 121.224 209.416 120.98 209.305 120.712C209.194 120.444 209.137 120.156 209.137 119.865C209.137 119.575 209.194 119.287 209.305 119.018C209.416 118.75 209.579 118.506 209.785 118.301C209.991 118.095 210.235 117.933 210.503 117.822C210.772 117.711 211.06 117.654 211.35 117.654H272.977C273.268 117.654 273.555 117.711 273.824 117.822C274.092 117.933 274.336 118.095 274.542 118.301C274.748 118.506 274.911 118.75 275.022 119.018C275.133 119.287 275.191 119.575 275.191 119.865C275.191 120.156 275.133 120.444 275.022 120.712C274.911 120.98 274.748 121.224 274.542 121.43C274.336 121.635 274.092 121.798 273.824 121.909C273.555 122.02 273.268 122.077 272.977 122.076Z" fill="#E6E6E6"/>
<path d="M263.856 141.436H211.35C210.764 141.436 210.201 141.203 209.787 140.788C209.372 140.373 209.139 139.811 209.139 139.225C209.139 138.638 209.372 138.076 209.787 137.661C210.201 137.246 210.764 137.013 211.35 137.013H263.856C264.442 137.013 265.005 137.246 265.419 137.661C265.834 138.076 266.067 138.638 266.067 139.225C266.067 139.811 265.834 140.373 265.419 140.788C265.005 141.203 264.442 141.436 263.856 141.436Z" fill="#E6E6E6"/>
<path d="M272.977 148.898H211.35C210.764 148.898 210.201 148.665 209.787 148.251C209.372 147.836 209.139 147.274 209.139 146.687C209.139 146.101 209.372 145.538 209.787 145.124C210.201 144.709 210.764 144.476 211.35 144.476H272.977C273.563 144.476 274.126 144.709 274.54 145.124C274.955 145.538 275.188 146.101 275.188 146.687C275.188 147.274 274.955 147.836 274.54 148.251C274.126 148.665 273.563 148.898 272.977 148.898Z" fill="#E6E6E6"/>
<path d="M190.569 125.432C195.75 125.432 199.95 121.232 199.95 116.051C199.95 110.87 195.75 106.67 190.569 106.67C185.388 106.67 181.188 110.87 181.188 116.051C181.188 121.232 185.388 125.432 190.569 125.432Z" fill="#E6E6E6"/>
<path d="M190.569 152.471C195.75 152.471 199.95 148.271 199.95 143.09C199.95 137.909 195.75 133.709 190.569 133.709C185.388 133.709 181.188 137.909 181.188 143.09C181.188 148.271 185.388 152.471 190.569 152.471Z" fill="#E6E6E6"/>
<path d="M263.856 168.475H211.35C210.764 168.475 210.201 168.242 209.787 167.827C209.372 167.412 209.139 166.85 209.139 166.263C209.139 165.677 209.372 165.115 209.787 164.7C210.201 164.285 210.764 164.052 211.35 164.052H263.856C264.442 164.052 265.005 164.285 265.419 164.7C265.834 165.115 266.067 165.677 266.067 166.263C266.067 166.85 265.834 167.412 265.419 167.827C265.005 168.242 264.442 168.475 263.856 168.475Z" fill="#E6E6E6"/>
<path d="M272.977 175.937H211.35C210.764 175.937 210.201 175.704 209.787 175.29C209.372 174.875 209.139 174.313 209.139 173.726C209.139 173.14 209.372 172.577 209.787 172.163C210.201 171.748 210.764 171.515 211.35 171.515H272.977C273.563 171.515 274.126 171.748 274.54 172.163C274.955 172.577 275.188 173.14 275.188 173.726C275.188 174.313 274.955 174.875 274.54 175.29C274.126 175.704 273.563 175.937 272.977 175.937Z" fill="#E6E6E6"/>
<path d="M190.569 179.51C195.75 179.51 199.95 175.31 199.95 170.129C199.95 164.948 195.75 160.748 190.569 160.748C185.388 160.748 181.188 164.948 181.188 170.129C181.188 175.31 185.388 179.51 190.569 179.51Z" fill="#E6E6E6"/>
</g>
<g clip-path="url(#clip1_229_30)">
<path d="M306.212 212.517H44.7321V336.594H306.212V212.517Z" fill="#E6E6E6"/>
<path d="M298.735 223.157H52.2092V326.678H298.735V223.157Z" fill="white"/>
<path d="M257.508 242.426H251.124V248.81H257.508V242.426Z" fill="#E6E6E6"/>
<path d="M87.2321 242.426H80.8484V248.81H87.2321V242.426Z" fill="#2C76DC"/>
<path d="M101.943 260.711H80.6637V281.991H101.943V260.711Z" fill="#E6E6E6"/>
<path d="M306.1 205.349H44.6206V216.457H306.1V205.349Z" fill="#2C76DC"/>
<path d="M52.8756 215.426C54.0127 215.426 54.9345 214.505 54.9345 213.367C54.9345 212.23 54.0127 211.309 52.8756 211.309C51.7385 211.309 50.8167 212.23 50.8167 213.367C50.8167 214.505 51.7385 215.426 52.8756 215.426Z" fill="white"/>
<path d="M60.6904 215.426C61.8275 215.426 62.7493 214.505 62.7493 213.367C62.7493 212.23 61.8275 211.309 60.6904 211.309C59.5533 211.309 58.6315 212.23 58.6315 213.367C58.6315 214.505 59.5533 215.426 60.6904 215.426Z" fill="white"/>
<path d="M68.5057 215.426C69.6428 215.426 70.5646 214.505 70.5646 213.367C70.5646 212.23 69.6428 211.309 68.5057 211.309C67.3686 211.309 66.4468 212.23 66.4468 213.367C66.4468 214.505 67.3686 215.426 68.5057 215.426Z" fill="white"/>
<path d="M346 336.594H0V337.338H346V336.594Z" fill="#E6E6E6"/>
<path d="M176.147 262.84H124.013V265.833H176.147V262.84Z" fill="#E6E6E6"/>
<path d="M204.52 273.756H124.013V276.749H204.52V273.756Z" fill="#2C76DC"/>
<path d="M189.624 284.041H124.013V287.034H189.624V284.041Z" fill="#E6E6E6"/>
<path d="M162.316 294.288H124.013V297.28H162.316V294.288Z" fill="#E6E6E6"/>
<path d="M181.822 304.533H124.013V307.526H181.822V304.533Z" fill="#E6E6E6"/>
<path d="M268.502 242.426H262.119V248.81H268.502V242.426Z" fill="#E6E6E6"/>
<path d="M279.497 242.426H273.113V248.81H279.497V242.426Z" fill="#E6E6E6"/>
<path opacity="0.997" d="M266.532 297.28C273.692 297.28 279.496 291.476 279.496 284.316C279.496 277.156 273.692 271.351 266.532 271.351C259.372 271.351 253.567 277.156 253.567 284.316C253.567 291.476 259.372 297.28 266.532 297.28Z" fill="#2C76DC"/>
<path d="M70.0507 137.104C78.1116 137.104 84.6462 130.57 84.6462 122.509C84.6462 114.448 78.1116 107.913 70.0507 107.913C61.9898 107.913 55.4551 114.448 55.4551 122.509C55.4551 130.57 61.9898 137.104 70.0507 137.104Z" fill="#2F2E41"/>
<path d="M33.7277 247.39H27.3355L24.295 222.741H33.727L33.7277 247.39Z" fill="#FEB8B8"/>
<path d="M22.7725 245.564H35.0973V253.324H15.0122C15.0122 251.266 15.8298 249.292 17.2851 247.837C18.7405 246.382 20.7143 245.564 22.7725 245.564Z" fill="#2F2E41"/>
<path d="M23.7517 243.824L17.6545 241.91L22.1336 217.48L31.1326 220.304L23.7517 243.824Z" fill="#FEB8B8"/>
<path d="M13.8422 238.802L25.6019 242.492L23.2783 249.897L4.11475 243.883C4.41989 242.91 4.91355 242.008 5.56757 241.226C6.22158 240.444 7.02313 239.799 7.92644 239.328C8.82976 238.856 9.81716 238.567 10.8323 238.476C11.8474 238.386 12.8703 238.497 13.8426 238.802L13.8422 238.802Z" fill="#2F2E41"/>
<path d="M25.8311 233.987C25.5519 233.987 25.2749 233.937 25.0135 233.839L20.3103 232.076C19.7825 231.876 19.344 231.493 19.0748 230.997C18.8055 230.501 18.7234 229.925 18.8435 229.374C20.0272 224.051 24.0613 205.932 26.2704 196.213C28.8901 184.685 67.1084 182.543 68.734 182.457L68.8678 182.45L73.167 187.85C74.7205 192.844 74.228 196.739 71.7035 199.427C64.3364 207.271 42.3414 202.404 39.7187 201.788L28.0286 232.477C27.8583 232.921 27.5571 233.304 27.165 233.573C26.7729 233.843 26.3081 233.987 25.8322 233.987H25.8311Z" fill="#2F2E41"/>
<path d="M32.6076 237.636C32.3284 237.636 32.0514 237.586 31.79 237.488L27.0884 235.725C26.5605 235.525 26.1219 235.142 25.8527 234.646C25.5834 234.15 25.5014 233.574 25.6215 233.023C26.8052 227.7 30.8394 209.58 33.0484 199.862C35.6681 188.334 73.8864 186.191 75.512 186.106L75.6458 186.099L79.9435 191.501C81.497 196.494 81.0045 200.389 78.48 203.077C71.1132 210.919 49.1179 206.054 46.4952 205.438L34.8037 236.126C34.6333 236.57 34.3322 236.952 33.94 237.222C33.5479 237.492 33.0832 237.636 32.6073 237.636L32.6076 237.636Z" fill="#2F2E41"/>
<path d="M19.0051 162.561C19.1777 162.792 19.332 163.037 19.4663 163.292L45.1758 166L48.8774 160.926L57.265 165.51L49.9961 177.823L18.4655 169.784C17.6699 170.56 16.6572 171.075 15.5618 171.261C14.4664 171.447 13.3404 171.295 12.3335 170.825C11.3266 170.355 10.4865 169.59 9.92497 168.632C9.36343 167.673 9.10705 166.566 9.18993 165.458C9.27282 164.35 9.69104 163.294 10.389 162.429C11.0869 161.565 12.0315 160.933 13.097 160.619C14.1626 160.304 15.2987 160.322 16.3542 160.669C17.4097 161.015 18.3346 161.675 19.0058 162.561L19.0051 162.561Z" fill="#FEB8B8"/>
<path d="M78.7501 193.568C78.3784 193.568 78.0122 193.478 77.6817 193.308C72.5407 190.694 62.5301 186.167 53.2472 185.22C52.9295 185.189 52.6219 185.091 52.344 184.934C52.0661 184.777 51.8241 184.564 51.6336 184.308C51.4393 184.049 51.3005 183.753 51.2257 183.438C51.151 183.123 51.1419 182.796 51.1991 182.478C52.0368 177.841 53.9582 166.033 53.7107 156.57C53.6378 153.66 54.5571 150.812 56.3174 148.494C58.0777 146.176 60.5743 144.526 63.3968 143.815C65.0955 143.367 66.8209 143.027 68.5626 142.797C70.5651 142.543 72.5991 142.762 74.5018 143.436C76.4044 144.11 78.1228 145.22 79.5193 146.677C80.9157 148.135 81.9515 149.899 82.5435 151.829C83.1355 153.758 83.2674 155.8 82.9285 157.79C81.2732 167.597 79.6042 181.294 81.0547 190.855C81.1213 191.284 81.068 191.723 80.9007 192.123C80.7333 192.523 80.4585 192.869 80.1066 193.122C79.713 193.411 79.2381 193.567 78.7501 193.568Z" fill="#CCCCCC"/>
<path d="M54.1867 168.624C53.8662 168.624 53.5493 168.558 53.2553 168.43L46.558 165.531C45.9875 165.284 45.5386 164.82 45.3097 164.241C45.0808 163.663 45.0907 163.018 45.3371 162.447L50.5141 150.488C50.8216 149.763 51.2689 149.106 51.8303 148.554C52.3917 148.002 53.0564 147.566 53.7862 147.271C54.5161 146.976 55.2969 146.828 56.0841 146.835C56.8713 146.842 57.6495 147.003 58.3741 147.311C59.0988 147.618 59.7558 148.066 60.3076 148.627C60.8595 149.189 61.2953 149.853 61.5903 150.583C61.8853 151.313 62.0336 152.094 62.0268 152.881C62.02 153.668 61.8582 154.446 61.5507 155.171C61.5395 155.197 61.5282 155.224 61.5166 155.25L56.3396 167.209C56.1574 167.629 55.8566 167.987 55.4742 168.238C55.0918 168.489 54.6443 168.624 54.1867 168.624Z" fill="#CCCCCC"/>
<path d="M69.5174 138.728C76.5884 138.728 82.3205 132.996 82.3205 125.925C82.3205 118.854 76.5884 113.122 69.5174 113.122C62.4464 113.122 56.7143 118.854 56.7143 125.925C56.7143 132.996 62.4464 138.728 69.5174 138.728Z" fill="#FEB8B8"/>
<path d="M56.4838 119.634C62.5482 123.336 69.385 125.588 76.4623 126.217L74.3562 123.694C75.8895 124.26 77.503 124.581 79.1366 124.643C79.9546 124.666 80.7667 124.498 81.5078 124.151C82.249 123.804 82.8985 123.288 83.4042 122.645C83.8171 121.977 84.0623 121.22 84.1191 120.437C84.1758 119.654 84.0424 118.869 83.7301 118.148C83.0884 116.711 82.0896 115.462 80.8287 114.52C78.5936 112.752 75.9559 111.564 73.1506 111.063C70.3452 110.562 67.4594 110.762 64.7503 111.646C62.8919 112.202 61.2275 113.269 59.9479 114.727C58.7341 116.224 56.3976 117.558 57.019 119.383L56.4838 119.634Z" fill="#2F2E41"/>
<path d="M70.662 108.848C73.214 106.26 76.3024 104.262 79.7097 102.996C81.8724 102.086 84.2444 101.792 86.5639 102.145C88.8506 102.605 91.0129 104.187 91.651 106.431C92.1713 108.265 91.6339 110.24 90.8244 111.968C90.015 113.696 88.9343 115.297 88.2794 117.088C87.6114 118.916 87.4105 120.882 87.6949 122.807C87.9793 124.732 88.74 126.556 89.9081 128.112C91.0761 129.669 92.6144 130.909 94.3833 131.72C96.1522 132.531 98.0958 132.888 100.037 132.758C97.7909 133.059 95.7201 134.115 93.5241 134.676C91.328 135.238 88.7362 135.2 87.1043 133.627C85.3776 131.962 85.3431 129.256 85.4267 126.859L85.7983 116.17C85.8615 114.353 85.9158 112.478 85.2602 110.781C84.6046 109.085 83.0474 107.6 81.2294 107.616C79.8513 107.627 78.6319 108.462 77.5267 109.285C76.4214 110.109 75.2518 110.987 73.8794 111.109C72.5069 111.232 70.9397 110.217 71.0422 108.842" fill="#2F2E41"/>
<path d="M47.9922 190.279C47.1439 190.278 46.3064 190.089 45.54 189.725C44.7736 189.362 44.0974 188.833 43.5601 188.176C43.0228 187.52 42.6379 186.752 42.4329 185.929C42.2279 185.106 42.2081 184.248 42.3748 183.416C42.5415 182.584 42.8906 181.8 43.397 181.119C43.9034 180.438 44.5544 179.879 45.3032 179.48C46.052 179.081 46.8798 178.853 47.7272 178.813C48.5746 178.773 49.4203 178.921 50.2035 179.247C50.439 179.347 50.6674 179.462 50.8869 179.594L74.2094 169.124L74.8646 162.799L84.9179 162.53L84.8514 173.06C84.8392 174.28 84.4339 175.464 83.6956 176.435C82.9574 177.406 81.9255 178.114 80.7533 178.452L53.4802 186.214C53.4276 186.394 53.3656 186.571 53.2944 186.745C52.8568 187.79 52.1205 188.683 51.1778 189.312C50.2351 189.94 49.1279 190.277 47.9948 190.279L47.9922 190.279Z" fill="#FEB8B8"/>
<path d="M84.0665 167.689C83.7806 167.834 83.4681 167.919 83.1482 167.938L75.864 168.386C75.2433 168.423 74.633 168.213 74.1671 167.801C73.7012 167.389 73.4177 166.809 73.3788 166.188L72.5794 153.181C72.4836 151.595 73.0213 150.036 74.0742 148.846C75.1272 147.657 76.6094 146.934 78.1951 146.836C79.7809 146.738 81.3405 147.274 82.5314 148.326C83.7223 149.378 84.447 150.859 84.5463 152.445L85.3461 165.452C85.3738 165.909 85.2676 166.364 85.0405 166.762C84.8133 167.159 84.4751 167.481 84.0673 167.689H84.0665Z" fill="#CCCCCC"/>
<path d="M69.3988 187.945H25.8909C25.5259 187.945 25.2301 188.241 25.2301 188.606V190.934C25.2301 191.298 25.5259 191.594 25.8909 191.594H69.3988C69.7637 191.594 70.0596 191.298 70.0596 190.934V188.606C70.0596 188.241 69.7637 187.945 69.3988 187.945Z" fill="#3F3D56"/>
<path d="M8.51251 188.206V162.664C8.51359 161.765 8.87092 160.904 9.50611 160.269C10.1413 159.634 11.0025 159.277 11.9008 159.275H58.2942C59.1925 159.276 60.0537 159.634 60.6889 160.269C61.3241 160.904 61.6814 161.765 61.6824 162.664V188.206C61.6814 189.105 61.3241 189.966 60.6889 190.601C60.0537 191.236 59.1925 191.594 58.2942 191.595H11.9008C11.0025 191.594 10.1413 191.236 9.50611 190.601C8.87092 189.966 8.51359 189.105 8.51251 188.206Z" fill="#3F3D56"/>
<path d="M35.6555 178.564C37.3829 178.564 38.7832 177.164 38.7832 175.436C38.7832 173.709 37.3829 172.309 35.6555 172.309C33.9281 172.309 32.5277 173.709 32.5277 175.436C32.5277 177.164 33.9281 178.564 35.6555 178.564Z" fill="white"/>
</g>
<defs>
<clipPath id="clip0_229_30">
<rect width="208" height="194.192" fill="white" transform="translate(84)"/>
</clipPath>
<clipPath id="clip1_229_30">
<rect width="346" height="235.338" fill="white" transform="translate(0 102)"/>
</clipPath>
</defs>
</svg>
